<svg width="100%" viewBox="0 0 500 900" xmlns="http://www.w3.org/2000/svg">
<style>
  @media (prefers-color-scheme: dark) {
    .bg  { fill: #0d1117; }
    .el  { stroke: #58a6ff1a; }
    .em  { stroke: #58a6ff38; }
    .eh  { stroke: #58a6ff66; }
    .nd  { fill: #0d1117; stroke: #30363d; }
    .nm  { fill: #0d1117; stroke: #388bfd; }
    .nh  { fill: #0d1117; stroke: #58a6ff; }
    .dd  { fill: #21262d; }
    .dm  { fill: #388bfd; }
    .dh  { fill: #79c0ff; }
    .gl  { fill: #388bfd14; }
  }
  @media (prefers-color-scheme: light) {
    .bg  { fill: #f6f8fa; }
    .el  { stroke: #0969da0f; }
    .em  { stroke: #0969da28; }
    .eh  { stroke: #0969da50; }
    .nd  { fill: #f6f8fa; stroke: #c8d0d9; }
    .nm  { fill: #f6f8fa; stroke: #0550ae; }
    .nh  { fill: #f6f8fa; stroke: #0969da; }
    .dd  { fill: #c8d0d9; }
    .dm  { fill: #0550ae; }
    .dh  { fill: #0969da; }
    .gl  { fill: #0969da0a; }
  }
</style>
<rect width="500" height="900" class="bg"/>

<!-- row 1 -->
<polygon points="60,40 160,20 150,100" fill="none" class="em" stroke-width="0.6"/>
<polygon points="160,20 280,10 260,90" fill="none" class="el" stroke-width="0.5"/>
<polygon points="280,10 400,30 370,110" fill="none" class="em" stroke-width="0.6"/>
<polygon points="400,30 480,60 460,140" fill="none" class="el" stroke-width="0.5"/>

<!-- row 2 -->
<polygon points="20,120 60,40 150,100"  fill="none" class="el" stroke-width="0.5"/>
<polygon points="60,40 150,100 160,20"  fill="none" class="em" stroke-width="0.6"/>
<polygon points="150,100 260,90 230,175" fill="none" class="eh" stroke-width="0.8"/>
<polygon points="260,90 370,110 340,190" fill="none" class="em" stroke-width="0.6"/>
<polygon points="370,110 460,140 440,215" fill="none" class="el" stroke-width="0.5"/>
<polygon points="460,140 500,90 490,200" fill="none" class="el" stroke-width="0.5"/>

<!-- row 3 -->
<polygon points="20,120 150,100 100,210" fill="none" class="em" stroke-width="0.6"/>
<polygon points="100,210 230,175 200,265" fill="none" class="eh" stroke-width="0.8"/>
<polygon points="230,175 340,190 310,270" fill="none" class="em" stroke-width="0.6"/>
<polygon points="340,190 440,215 420,295" fill="none" class="eh" stroke-width="0.8"/>
<polygon points="440,215 490,200 480,290" fill="none" class="el" stroke-width="0.5"/>

<!-- row 4 -->
<polygon points="20,120 100,210 30,290"  fill="none" class="el" stroke-width="0.5"/>
<polygon points="100,210 200,265 140,345" fill="none" class="em" stroke-width="0.6"/>
<polygon points="200,265 310,270 280,355" fill="none" class="eh" stroke-width="0.8"/>
<polygon points="310,270 420,295 390,375" fill="none" class="em" stroke-width="0.6"/>
<polygon points="420,295 480,290 470,375" fill="none" class="el" stroke-width="0.5"/>

<!-- row 5 -->
<polygon points="30,290 140,345 80,420"  fill="none" class="el" stroke-width="0.5"/>
<polygon points="140,345 280,355 250,435" fill="none" class="em" stroke-width="0.6"/>
<polygon points="280,355 390,375 360,455" fill="none" class="eh" stroke-width="0.8"/>
<polygon points="390,375 470,375 460,455" fill="none" class="em" stroke-width="0.6"/>

<!-- row 6 -->
<polygon points="80,420 250,435 180,510" fill="none" class="em" stroke-width="0.6"/>
<polygon points="250,435 360,455 330,530" fill="none" class="el" stroke-width="0.5"/>
<polygon points="360,455 460,455 445,535" fill="none" class="em" stroke-width="0.6"/>
<polygon points="460,455 500,420 490,510" fill="none" class="el" stroke-width="0.5"/>

<!-- row 7 -->
<polygon points="80,420 180,510 100,580" fill="none" class="el" stroke-width="0.5"/>
<polygon points="180,510 330,530 290,610" fill="none" class="em" stroke-width="0.6"/>
<polygon points="330,530 445,535 420,615" fill="none" class="eh" stroke-width="0.8"/>
<polygon points="445,535 490,510 480,600" fill="none" class="el" stroke-width="0.5"/>

<!-- row 8 -->
<polygon points="100,580 290,610 210,685" fill="none" class="em" stroke-width="0.6"/>
<polygon points="290,610 420,615 390,690" fill="none" class="el" stroke-width="0.5"/>
<polygon points="420,615 480,600 470,685" fill="none" class="el" stroke-width="0.5"/>

<!-- row 9 -->
<polygon points="100,580 210,685 130,755" fill="none" class="el" stroke-width="0.5"/>
<polygon points="210,685 390,690 350,765" fill="none" class="em" stroke-width="0.6"/>
<polygon points="390,690 470,685 455,760" fill="none" class="el" stroke-width="0.5"/>

<!-- row 10 -->
<polygon points="130,755 350,765 270,840" fill="none" class="el" stroke-width="0.5"/>
<polygon points="350,765 455,760 430,845" fill="none" class="el" stroke-width="0.5"/>

<!-- cross edges -->
<line x1="150" y1="100" x2="370" y2="110" class="el" stroke-width="0.5"/>
<line x1="230" y1="175" x2="440" y2="215" class="el" stroke-width="0.5"/>
<line x1="200" y1="265" x2="420" y2="295" class="el" stroke-width="0.5"/>
<line x1="140" y1="345" x2="390" y2="375" class="el" stroke-width="0.5"/>
<line x1="180" y1="510" x2="460" y2="455" class="el" stroke-width="0.5"/>
<line x1="290" y1="610" x2="480" y2="600" class="el" stroke-width="0.5"/>

<!-- glows -->
<circle cx="250" cy="265" r="22" class="gl"/>
<circle cx="230" cy="175" r="16" class="gl"/>
<circle cx="360" cy="455" r="16" class="gl"/>

<!-- NODES -->
<circle cx="60"  cy="40"  r="4"  class="nd" stroke-width="0.5"/><circle cx="60"  cy="40"  r="1.5" class="dd"/>
<circle cx="160" cy="20"  r="3.5" class="nd" stroke-width="0.5"/>
<circle cx="280" cy="10"  r="3.5" class="nd" stroke-width="0.5"/>
<circle cx="400" cy="30"  r="3.5" class="nd" stroke-width="0.5"/>
<circle cx="480" cy="60"  r="4"  class="nd" stroke-width="0.5"/><circle cx="480" cy="60"  r="1.5" class="dd"/>

<circle cx="20"  cy="120" r="4"  class="nd" stroke-width="0.5"/>
<circle cx="150" cy="100" r="7"  class="nm" stroke-width="1"/><circle cx="150" cy="100" r="2.5" class="dm"/>
<circle cx="260" cy="90"  r="6"  class="nm" stroke-width="0.75"/><circle cx="260" cy="90"  r="2"   class="dm"/>
<circle cx="370" cy="110" r="7"  class="nm" stroke-width="1"/><circle cx="370" cy="110" r="2.5" class="dm"/>
<circle cx="460" cy="140" r="5"  class="nd" stroke-width="0.5"/><circle cx="460" cy="140" r="1.5" class="dd"/>

<circle cx="100" cy="210" r="8"  class="nh" stroke-width="1.2"/><circle cx="100" cy="210" r="3"   class="dh"/>
<circle cx="230" cy="175" r="10" class="nh" stroke-width="1.5"/><circle cx="230" cy="175" r="4"   class="dh"/>
<circle cx="340" cy="190" r="7"  class="nm" stroke-width="1"/><circle cx="340" cy="190" r="2.5" class="dm"/>
<circle cx="440" cy="215" r="8"  class="nh" stroke-width="1.2"/><circle cx="440" cy="215" r="3"   class="dh"/>
<circle cx="490" cy="200" r="4"  class="nd" stroke-width="0.5"/>

<circle cx="30"  cy="290" r="4"  class="nd" stroke-width="0.5"/>
<circle cx="200" cy="265" r="9"  class="nh" stroke-width="1.5"/><circle cx="200" cy="265" r="3.5" class="dh"/>
<circle cx="310" cy="270" r="7"  class="nm" stroke-width="1"/><circle cx="310" cy="270" r="2.5" class="dm"/>
<circle cx="420" cy="295" r="8"  class="nh" stroke-width="1.2"/><circle cx="420" cy="295" r="3"   class="dh"/>
<circle cx="480" cy="290" r="5"  class="nd" stroke-width="0.5"/><circle cx="480" cy="290" r="1.5" class="dd"/>

<circle cx="80"  cy="420" r="6"  class="nm" stroke-width="0.75"/><circle cx="80"  cy="420" r="2"   class="dm"/>
<circle cx="140" cy="345" r="7"  class="nm" stroke-width="1"/><circle cx="140" cy="345" r="2.5" class="dm"/>
<circle cx="280" cy="355" r="8"  class="nh" stroke-width="1.2"/><circle cx="280" cy="355" r="3"   class="dh"/>
<circle cx="390" cy="375" r="7"  class="nm" stroke-width="1"/><circle cx="390" cy="375" r="2.5" class="dm"/>
<circle cx="470" cy="375" r="5"  class="nd" stroke-width="0.5"/><circle cx="470" cy="375" r="1.5" class="dd"/>

<circle cx="180" cy="510" r="8"  class="nh" stroke-width="1.2"/><circle cx="180" cy="510" r="3"   class="dh"/>
<circle cx="250" cy="435" r="7"  class="nm" stroke-width="1"/><circle cx="250" cy="435" r="2.5" class="dm"/>
<circle cx="360" cy="455" r="9"  class="nh" stroke-width="1.5"/><circle cx="360" cy="455" r="3.5" class="dh"/>
<circle cx="460" cy="455" r="6"  class="nm" stroke-width="0.75"/><circle cx="460" cy="455" r="2"   class="dm"/>
<circle cx="490" cy="510" r="4"  class="nd" stroke-width="0.5"/>

<circle cx="100" cy="580" r="6"  class="nm" stroke-width="0.75"/><circle cx="100" cy="580" r="2"   class="dm"/>
<circle cx="330" cy="530" r="7"  class="nm" stroke-width="1"/><circle cx="330" cy="530" r="2.5" class="dm"/>
<circle cx="445" cy="535" r="7"  class="nm" stroke-width="1"/><circle cx="445" cy="535" r="2.5" class="dm"/>
<circle cx="480" cy="600" r="5"  class="nd" stroke-width="0.5"/><circle cx="480" cy="600" r="1.5" class="dd"/>

<circle cx="130" cy="755" r="5"  class="nd" stroke-width="0.5"/><circle cx="130" cy="755" r="1.5" class="dd"/>
<circle cx="210" cy="685" r="7"  class="nm" stroke-width="1"/><circle cx="210" cy="685" r="2.5" class="dm"/>
<circle cx="290" cy="610" r="8"  class="nh" stroke-width="1.2"/><circle cx="290" cy="610" r="3"   class="dh"/>
<circle cx="390" cy="690" r="6"  class="nm" stroke-width="0.75"/><circle cx="390" cy="690" r="2"   class="dm"/>
<circle cx="470" cy="685" r="5"  class="nd" stroke-width="0.5"/><circle cx="470" cy="685" r="1.5" class="dd"/>

<circle cx="270" cy="840" r="5"  class="nd" stroke-width="0.5"/><circle cx="270" cy="840" r="1.5" class="dd"/>
<circle cx="350" cy="765" r="6"  class="nm" stroke-width="0.75"/><circle cx="350" cy="765" r="2"   class="dm"/>
<circle cx="455" cy="760" r="5"  class="nd" stroke-width="0.5"/><circle cx="455" cy="760" r="1.5" class="dd"/>
<circle cx="430" cy="845" r="4"  class="nd" stroke-width="0.5"/>
</svg>
